<mxfile host="app.diagrams.net" modified="2023-05-03T06:50:51.397Z" agent="Mozilla/5.0 (Macintosh; Intel Mac OS X 10_15_7) AppleWebKit/537.36 (KHTML, like Gecko) Chrome/112.0.0.0 Safari/537.36" version="21.2.6" etag="7TSYoS78bYtIE_qeWQ1L" type="github">
  <diagram name="第 1 页" id="wqbB_QaGjjch0p4NTzwL">
    <mxGraphModel>
      <root>
        <mxCell id="0" />
        <mxCell id="1" parent="0" />
      </root>
    </mxGraphModel>
  </diagram>
</mxfile>
